<svg viewBox="0 0 100 120" xmlns="http://www.w3.org/2000/svg">
  <defs>
    <radialGradient id="faviconLeafA" cx="40%" cy="55%" r="55%">
      <stop offset="0%" stop-color="#608a3e"/>
      <stop offset="50%" stop-color="#94c456"/>
      <stop offset="100%" stop-color="#d4e7a5"/>
    </radialGradient>
    <radialGradient id="faviconLeafB" cx="55%" cy="50%" r="55%">
      <stop offset="0%" stop-color="#5a8330"/>
      <stop offset="50%" stop-color="#8fb84a"/>
      <stop offset="100%" stop-color="#cee49b"/>
    </radialGradient>
  </defs>
  <g transform="translate(50, 45)">
    <path d="M 0 3 Q 1 22 -1 50" stroke="#3d5021" stroke-width="2" fill="none" stroke-linecap="round"/>
    <g transform="rotate(-60)">
      <g transform="rotate(45)"><path d="M 0 -3 C -8 -10 -22 -22 -22 -34 C -22 -44 -11 -47 0 -40 C 11 -47 22 -44 22 -34 C 22 -22 8 -10 0 -3 Z" fill="url(#faviconLeafA)"/></g>
      <g transform="rotate(135)"><path d="M 0 -3 C -8 -10 -22 -22 -22 -34 C -22 -44 -11 -47 0 -40 C 11 -47 22 -44 22 -34 C 22 -22 8 -10 0 -3 Z" fill="url(#faviconLeafB)"/></g>
      <g transform="rotate(225)"><path d="M 0 -3 C -8 -10 -22 -22 -22 -34 C -22 -44 -11 -47 0 -40 C 11 -47 22 -44 22 -34 C 22 -22 8 -10 0 -3 Z" fill="url(#faviconLeafA)"/></g>
      <g transform="rotate(315)"><path d="M 0 -3 C -8 -10 -22 -22 -22 -34 C -22 -44 -11 -47 0 -40 C 11 -47 22 -44 22 -34 C 22 -22 8 -10 0 -3 Z" fill="url(#faviconLeafB)"/></g>
      <circle cx="0" cy="0" r="5" fill="#fbbf24"/>
    </g>
  </g>
</svg>
